<svg width="17" height="17" viewBox="0 0 17 17" fill="none" xmlns="http://www.w3.org/2000/svg">
<path fill-rule="evenodd" clip-rule="evenodd" d="M16.32 8.68518C16.32 8.10757 16.2682 7.55217 16.1719 7.01899H8.5V10.1699H12.8839C12.6951 11.1882 12.1212 12.0509 11.2585 12.6285V14.6724H13.8911C15.4314 13.2543 16.32 11.166 16.32 8.68518Z" fill="#4285F4"/>
<path fill-rule="evenodd" clip-rule="evenodd" d="M8.49988 16.6459C10.6993 16.6459 12.5432 15.9165 13.891 14.6724L11.2584 12.6285C10.5289 13.1173 9.59587 13.4061 8.49988 13.4061C6.37826 13.4061 4.58247 11.9732 3.94191 10.0478H1.22046V12.1583C2.56082 14.8205 5.3156 16.6459 8.49988 16.6459Z" fill="#34A853"/>
<path fill-rule="evenodd" clip-rule="evenodd" d="M3.94212 10.0478C3.77921 9.55902 3.68664 9.03695 3.68664 8.50006C3.68664 7.96317 3.77921 7.4411 3.94212 6.95235V4.84184H1.22067C0.668974 5.94152 0.354248 7.18562 0.354248 8.50006C0.354248 9.8145 0.668974 11.0586 1.22067 12.1583L3.94212 10.0478Z" fill="#FBBC05"/>
<path fill-rule="evenodd" clip-rule="evenodd" d="M8.49988 3.594C9.69584 3.594 10.7696 4.00499 11.6138 4.81217L13.9502 2.47579C12.5395 1.16135 10.6956 0.354172 8.49988 0.354172C5.3156 0.354172 2.56082 2.17958 1.22046 4.84179L3.94191 6.95231C4.58247 5.02693 6.37826 3.594 8.49988 3.594Z" fill="#EA4335"/>
</svg>
