<svg width="23" height="23" viewBox="0 0 23 23" fill="none" xmlns="http://www.w3.org/2000/svg">
<g clip-path="url(#clip0_973_10413)">
<path d="M0 7.71458C0 4.98577 0 3.62137 0.539477 2.58283C0.994089 1.70767 1.70767 0.994089 2.58283 0.539477C3.62137 0 4.98577 0 7.71458 0H15.2854C18.0142 0 19.3786 0 20.4172 0.539477C21.2923 0.994089 22.0059 1.70767 22.4605 2.58283C23 3.62137 23 4.98577 23 7.71458V15.2854C23 18.0142 23 19.3786 22.4605 20.4172C22.0059 21.2923 21.2923 22.0059 20.4172 22.4605C19.3786 23 18.0142 23 15.2854 23H7.71458C4.98577 23 3.62137 23 2.58283 22.4605C1.70767 22.0059 0.994089 21.2923 0.539477 20.4172C0 19.3786 0 18.0142 0 15.2854V7.71458Z" fill="#1080F8"/>
<path d="M11.7476 8.46693C10.2883 6.60893 9.06806 5.90089 7.60761 5.90089C4.63016 5.90089 2.34888 9.77573 2.34888 13.877C2.34888 16.4435 3.59049 18.0622 5.67019 18.0622C7.16701 18.0622 8.24353 17.3566 10.1572 14.0113C10.1572 14.0113 10.955 12.6025 11.5039 11.632C11.6961 11.9425 11.8982 12.2766 12.1114 12.6357L13.0089 14.1454C14.757 17.0708 15.7311 18.0622 17.496 18.0622C19.522 18.0622 20.6495 16.4214 20.6495 13.8016C20.6495 9.50733 18.3169 5.90089 15.483 5.90089C13.9824 5.90089 12.8095 7.03117 11.7476 8.46693ZM14.5539 12.7993L13.4809 11.0097C13.1906 10.5375 12.9124 10.1035 12.6439 9.70568C13.6108 8.213 14.4086 7.46934 15.3573 7.46934C17.3283 7.46934 18.9051 10.3713 18.9051 13.9358C18.9051 15.2944 18.46 16.0828 17.5379 16.0828C16.6542 16.0828 16.2319 15.4992 14.5539 12.7993ZM4.32819 13.9106C4.32819 10.9331 5.81272 7.88866 7.58244 7.88866C8.54075 7.88866 9.34157 8.44212 10.5683 10.1982C9.40347 11.9848 8.69787 13.1054 8.69787 13.1054C7.14633 15.5376 6.60953 16.0828 5.74571 16.0828C4.8566 16.0828 4.32819 15.3023 4.32819 13.9106Z" fill="#FCFCFC"/>
</g>
<defs>
<clipPath id="clip0_973_10413">
<rect width="23" height="23" fill="white"/>
</clipPath>
</defs>
</svg>
