<svg width="23" height="23" viewBox="0 0 23 23" fill="none" xmlns="http://www.w3.org/2000/svg">
<path d="M11.5 23C17.8513 23 23 17.8513 23 11.5C23 5.14873 17.8513 0 11.5 0C5.14873 0 0 5.14873 0 11.5C0 17.8513 5.14873 23 11.5 23Z" fill="#FC3F1D"/>
<path d="M15.6611 18.7192H13.1366V6.23332H12.012C9.9506 6.23332 8.87081 7.26403 8.87081 8.80263C8.87081 10.5482 9.61557 11.357 11.1563 12.3877L12.426 13.2434L8.77692 18.7171H6.0625L9.34669 13.8303C7.45812 12.4816 6.3954 11.1649 6.3954 8.94347C6.3954 6.16716 8.33092 4.27859 11.995 4.27859H15.6441V18.7149H15.6611V18.7192Z" fill="white"/>
</svg>
